<?xml version="1.0" encoding="UTF-8" standalone="no"?>
<!DOCTYPE svg PUBLIC "-//W3C//DTD SVG 1.1//EN"
 "http://www.w3.org/Graphics/SVG/1.1/DTD/svg11.dtd">
<!-- Generated by graphviz version 2.38.0 (20140413.2041)
 -->
<!-- Title: package_state_machine Pages: 1 -->
<svg width="798pt" height="211pt"
 viewBox="0.00 0.00 798.00 211.00" xmlns="http://www.w3.org/2000/svg" xmlns:xlink="http://www.w3.org/1999/xlink">
<g id="graph0" class="graph" transform="scale(1 1) rotate(0) translate(4 207)">
<title>package_state_machine</title>
<!-- sem_balas -->
<g id="node1" class="node"><title>sem_balas</title>
<ellipse fill="white" stroke="black" cx="50.5" cy="-50.5" rx="50.5" ry="50.5"/>
<text text-anchor="middle" x="50.5" y="-46.8" font-family="Times,serif" font-size="14.00">sem_balas</text>
</g>
<!-- sem_moeda -->
<g id="node2" class="node"><title>sem_moeda</title>
<ellipse fill="white" stroke="black" cx="242.5" cy="-104.5" rx="50.5" ry="50.5"/>
<text text-anchor="middle" x="242.5" y="-100.8" font-family="Times,serif" font-size="14.00">sem_moeda</text>
</g>
<!-- sem_balas&#45;&gt;sem_moeda -->
<g id="edge1" class="edge"><title>sem_balas&#45;&gt;sem_moeda</title>
<path fill="none" stroke="black" d="M99.445,-64.1265C125.097,-71.4171 156.873,-80.4482 183.863,-88.1191"/>
<polygon fill="black" stroke="black" points="182.994,-91.5106 193.57,-90.8779 184.908,-84.7773 182.994,-91.5106"/>
<text text-anchor="middle" x="146.5" y="-88.3" font-family="Times,serif" font-size="14.00">recarregar</text>
</g>
<!-- com_moeda -->
<g id="node3" class="node"><title>com_moeda</title>
<ellipse fill="white" stroke="black" cx="512" cy="-152.5" rx="50.5" ry="50.5"/>
<text text-anchor="middle" x="512" y="-148.8" font-family="Times,serif" font-size="14.00">com_moeda</text>
</g>
<!-- sem_moeda&#45;&gt;com_moeda -->
<g id="edge2" class="edge"><title>sem_moeda&#45;&gt;com_moeda</title>
<path fill="none" stroke="black" d="M290.803,-120.31C297.535,-122.239 304.41,-124.041 311,-125.5 357.575,-135.813 411.178,-142.793 451.161,-147.068"/>
<polygon fill="black" stroke="black" points="450.97,-150.567 461.279,-148.124 451.696,-143.605 450.97,-150.567"/>
<text text-anchor="middle" x="372" y="-148.3" font-family="Times,serif" font-size="14.00">inserir_moeda</text>
</g>
<!-- com_moeda&#45;&gt;sem_moeda -->
<g id="edge4" class="edge"><title>com_moeda&#45;&gt;sem_moeda</title>
<path fill="none" stroke="black" d="M470.724,-123.386C459.1,-116.51 446.024,-110.128 433,-106.5 390.703,-94.7166 341.007,-94.6751 303.121,-97.3355"/>
<polygon fill="black" stroke="black" points="302.46,-93.8767 292.765,-98.1501 303.008,-100.855 302.46,-93.8767"/>
<text text-anchor="middle" x="372" y="-110.3" font-family="Times,serif" font-size="14.00">ejetar_moeda</text>
</g>
<!-- vendido -->
<g id="node4" class="node"><title>vendido</title>
<ellipse fill="white" stroke="black" cx="739.5" cy="-68.5" rx="50.5" ry="50.5"/>
<text text-anchor="middle" x="739.5" y="-64.8" font-family="Times,serif" font-size="14.00">vendido</text>
</g>
<!-- com_moeda&#45;&gt;vendido -->
<g id="edge3" class="edge"><title>com_moeda&#45;&gt;vendido</title>
<path fill="none" stroke="black" d="M559.45,-135.197C594.956,-121.971 644.067,-103.677 681.876,-89.5929"/>
<polygon fill="black" stroke="black" points="683.574,-92.6954 691.723,-85.9248 681.13,-86.1357 683.574,-92.6954"/>
<text text-anchor="middle" x="631" y="-127.3" font-family="Times,serif" font-size="14.00">virar_alavanca</text>
</g>
<!-- vendido&#45;&gt;sem_balas -->
<g id="edge5" class="edge"><title>vendido&#45;&gt;sem_balas</title>
<path fill="none" stroke="black" d="M689.165,-64.1751C593.374,-56.2565 375.488,-40.5839 192,-44.5 165.505,-45.0655 136.219,-46.2301 111.272,-47.3841"/>
<polygon fill="black" stroke="black" points="111.05,-43.8906 101.227,-47.8589 111.381,-50.8828 111.05,-43.8906"/>
<text text-anchor="middle" x="372" y="-52.3" font-family="Times,serif" font-size="14.00">dispensar &lt;balas = 0&gt;</text>
</g>
<!-- vendido&#45;&gt;sem_moeda -->
<g id="edge6" class="edge"><title>vendido&#45;&gt;sem_moeda</title>
<path fill="none" stroke="black" d="M688.84,-68.9184C631.485,-69.6651 534.322,-71.7404 451,-77.5 388.571,-81.8154 372.954,-83.6847 311,-92.5 308.183,-92.9008 305.303,-93.3314 302.398,-93.7828"/>
<polygon fill="black" stroke="black" points="301.784,-90.3364 292.469,-95.384 302.899,-97.2471 301.784,-90.3364"/>
<text text-anchor="middle" x="512" y="-81.3" font-family="Times,serif" font-size="14.00">dispensar &lt;balas &gt; 0&gt;</text>
</g>
</g>
</svg>
