<?xml version="1.0" encoding="UTF-8" standalone="no"?>
<!DOCTYPE svg PUBLIC "-//W3C//DTD SVG 1.1//EN"
 "http://www.w3.org/Graphics/SVG/1.1/DTD/svg11.dtd">
<!-- Generated by graphviz version 2.38.0 (20140413.2041)
 -->
<!-- Title: package_state_machine Pages: 1 -->
<svg width="1196pt" height="359pt"
 viewBox="0.00 0.00 1196.00 359.00" xmlns="http://www.w3.org/2000/svg" xmlns:xlink="http://www.w3.org/1999/xlink">
<g id="graph0" class="graph" transform="scale(1 1) rotate(0) translate(4 355)">
<title>package_state_machine</title>
<!-- rejected -->
<g id="node1" class="node"><title>rejected</title>
<ellipse fill="white" stroke="black" cx="274.5" cy="-181.5" rx="50.5" ry="50.5"/>
<ellipse fill="none" stroke="black" cx="274.5" cy="-181.5" rx="54.5" ry="54.5"/>
<text text-anchor="middle" x="274.5" y="-177.8" font-family="Times,serif" font-size="14.00">rejected</text>
</g>
<!-- scanned -->
<g id="node5" class="node"><title>scanned</title>
<ellipse fill="white" stroke="black" cx="440.5" cy="-181.5" rx="50.5" ry="50.5"/>
<text text-anchor="middle" x="440.5" y="-177.8" font-family="Times,serif" font-size="14.00">scanned</text>
</g>
<!-- rejected&#45;&gt;scanned -->
<g id="edge3" class="edge"><title>rejected&#45;&gt;scanned</title>
<path fill="none" stroke="black" d="M329.2,-181.5C345.368,-181.5 363.21,-181.5 379.745,-181.5"/>
<polygon fill="black" stroke="black" points="379.846,-185 389.846,-181.5 379.846,-178 379.846,-185"/>
<text text-anchor="middle" x="359.5" y="-185.3" font-family="Times,serif" font-size="14.00">scan</text>
</g>
<!-- unfit -->
<g id="node6" class="node"><title>unfit</title>
<ellipse fill="white" stroke="black" cx="623.5" cy="-102.5" rx="50.5" ry="50.5"/>
<text text-anchor="middle" x="623.5" y="-98.8" font-family="Times,serif" font-size="14.00">unfit</text>
</g>
<!-- rejected&#45;&gt;unfit -->
<g id="edge11" class="edge"><title>rejected&#45;&gt;unfit</title>
<path fill="none" stroke="black" d="M316.609,-146.411C337.227,-131.046 363.427,-114.678 390,-106.5 446.796,-89.021 515.147,-90.3203 562.986,-94.5818"/>
<polygon fill="black" stroke="black" points="562.884,-98.088 573.173,-95.5615 563.554,-91.1202 562.884,-98.088"/>
<text text-anchor="middle" x="440.5" y="-110.3" font-family="Times,serif" font-size="14.00">sort</text>
</g>
<!-- cancelled -->
<g id="node2" class="node"><title>cancelled</title>
<ellipse fill="white" stroke="black" cx="274.5" cy="-54.5" rx="50.5" ry="50.5"/>
<ellipse fill="none" stroke="black" cx="274.5" cy="-54.5" rx="54.5" ry="54.5"/>
<text text-anchor="middle" x="274.5" y="-50.8" font-family="Times,serif" font-size="14.00">cancelled</text>
</g>
<!-- dispatched -->
<g id="node3" class="node"><title>dispatched</title>
<ellipse fill="white" stroke="black" cx="1133.5" cy="-263.5" rx="50.5" ry="50.5"/>
<ellipse fill="none" stroke="black" cx="1133.5" cy="-263.5" rx="54.5" ry="54.5"/>
<text text-anchor="middle" x="1133.5" y="-259.8" font-family="Times,serif" font-size="14.00">dispatched</text>
</g>
<!-- dispatched&#45;&gt;dispatched -->
<g id="edge16" class="edge"><title>dispatched&#45;&gt;dispatched</title>
<path fill="none" stroke="black" d="M1116.26,-315.309C1117.75,-327.238 1123.49,-336 1133.5,-336 1140.38,-336 1145.24,-331.858 1148.1,-325.394"/>
<polygon fill="black" stroke="black" points="1151.59,-325.87 1150.74,-315.309 1144.82,-324.097 1151.59,-325.87"/>
<text text-anchor="middle" x="1133.5" y="-339.8" font-family="Times,serif" font-size="14.00">status_changed</text>
</g>
<!-- created -->
<g id="node4" class="node"><title>created</title>
<ellipse fill="white" stroke="black" cx="50.5" cy="-181.5" rx="50.5" ry="50.5"/>
<text text-anchor="middle" x="50.5" y="-177.8" font-family="Times,serif" font-size="14.00">created</text>
</g>
<!-- created&#45;&gt;rejected -->
<g id="edge2" class="edge"><title>created&#45;&gt;rejected</title>
<path fill="none" stroke="black" d="M101.045,-181.5C133.146,-181.5 175.261,-181.5 209.836,-181.5"/>
<polygon fill="black" stroke="black" points="209.837,-185 219.837,-181.5 209.837,-178 209.837,-185"/>
<text text-anchor="middle" x="160.5" y="-185.3" font-family="Times,serif" font-size="14.00">scan</text>
</g>
<!-- created&#45;&gt;cancelled -->
<g id="edge14" class="edge"><title>created&#45;&gt;cancelled</title>
<path fill="none" stroke="black" d="M94.8308,-156.712C129.993,-136.596 179.806,-108.1 217.906,-86.304"/>
<polygon fill="black" stroke="black" points="219.887,-89.2026 226.829,-81.199 216.411,-83.1266 219.887,-89.2026"/>
<text text-anchor="middle" x="160.5" y="-144.3" font-family="Times,serif" font-size="14.00">status_changed</text>
</g>
<!-- created&#45;&gt;created -->
<g id="edge15" class="edge"><title>created&#45;&gt;created</title>
<path fill="none" stroke="black" d="M40.4651,-231.068C41.408,-242.022 44.7529,-250 50.5,-250 54.2715,-250 57.0085,-246.564 58.7111,-241.106"/>
<polygon fill="black" stroke="black" points="62.1908,-241.533 60.5349,-231.068 55.3036,-240.281 62.1908,-241.533"/>
<text text-anchor="middle" x="50.5" y="-253.8" font-family="Times,serif" font-size="14.00">status_changed</text>
</g>
<!-- created&#45;&gt;created -->
<g id="edge17" class="edge"><title>created&#45;&gt;created</title>
<path fill="none" stroke="black" d="M30.2388,-228.217C28.1701,-249.5 34.9238,-268 50.5,-268 63.5207,-268 70.3764,-255.072 71.067,-238.398"/>
<polygon fill="black" stroke="black" points="74.5599,-238.107 70.7612,-228.217 67.5631,-238.318 74.5599,-238.107"/>
<text text-anchor="middle" x="50.5" y="-271.8" font-family="Times,serif" font-size="14.00">update</text>
</g>
<!-- created&#45;&gt;scanned -->
<g id="edge1" class="edge"><title>created&#45;&gt;scanned</title>
<path fill="none" stroke="black" d="M95.4741,-204.655C150.394,-230.556 247.102,-266.207 329,-244.5 350.652,-238.761 372.494,-227.679 390.977,-216.389"/>
<polygon fill="black" stroke="black" points="392.892,-219.319 399.491,-211.03 389.163,-213.395 392.892,-219.319"/>
<text text-anchor="middle" x="274.5" y="-255.3" font-family="Times,serif" font-size="14.00">scan</text>
</g>
<!-- scanned&#45;&gt;unfit -->
<g id="edge7" class="edge"><title>scanned&#45;&gt;unfit</title>
<path fill="none" stroke="black" d="M490.474,-173.933C511.054,-169.619 534.844,-163.099 555,-153.5 562.179,-150.081 569.341,-145.827 576.172,-141.244"/>
<polygon fill="black" stroke="black" points="578.456,-143.917 584.623,-135.302 574.429,-138.191 578.456,-143.917"/>
<text text-anchor="middle" x="532" y="-173.3" font-family="Times,serif" font-size="14.00">measure</text>
</g>
<!-- measured -->
<g id="node7" class="node"><title>measured</title>
<ellipse fill="white" stroke="black" cx="623.5" cy="-263.5" rx="50.5" ry="50.5"/>
<text text-anchor="middle" x="623.5" y="-259.8" font-family="Times,serif" font-size="14.00">measured</text>
</g>
<!-- scanned&#45;&gt;measured -->
<g id="edge6" class="edge"><title>scanned&#45;&gt;measured</title>
<path fill="none" stroke="black" d="M486.707,-201.981C511.327,-213.134 541.972,-227.018 567.916,-238.771"/>
<polygon fill="black" stroke="black" points="566.689,-242.058 577.242,-242.996 569.577,-235.682 566.689,-242.058"/>
<text text-anchor="middle" x="532" y="-236.3" font-family="Times,serif" font-size="14.00">measure</text>
</g>
<!-- unfit&#45;&gt;rejected -->
<g id="edge5" class="edge"><title>unfit&#45;&gt;rejected</title>
<path fill="none" stroke="black" d="M576.674,-82.8082C529.502,-65.1958 454.057,-44.4446 390,-60.5 368.977,-65.7692 362.293,-68.1421 347,-83.5 334.936,-95.6159 338.535,-103.308 329,-117.5 325.502,-122.707 321.656,-127.983 317.68,-133.157"/>
<polygon fill="black" stroke="black" points="314.799,-131.159 311.357,-141.179 320.296,-135.492 314.799,-131.159"/>
<text text-anchor="middle" x="440.5" y="-64.3" font-family="Times,serif" font-size="14.00">scan</text>
</g>
<!-- unfit&#45;&gt;scanned -->
<g id="edge4" class="edge"><title>unfit&#45;&gt;scanned</title>
<path fill="none" stroke="black" d="M574.239,-114.796C553.67,-120.799 529.695,-128.829 509,-138.5 502.995,-141.306 496.885,-144.56 490.916,-147.996"/>
<polygon fill="black" stroke="black" points="489.099,-145.005 482.302,-153.132 492.683,-151.017 489.099,-145.005"/>
<text text-anchor="middle" x="532" y="-142.3" font-family="Times,serif" font-size="14.00">scan</text>
</g>
<!-- unfit&#45;&gt;unfit -->
<g id="edge10" class="edge"><title>unfit&#45;&gt;unfit</title>
<path fill="none" stroke="black" d="M609.164,-151.14C610.342,-162.569 615.121,-171 623.5,-171 629.13,-171 633.134,-167.194 635.513,-161.23"/>
<polygon fill="black" stroke="black" points="639.003,-161.67 637.836,-151.14 632.182,-160.1 639.003,-161.67"/>
<text text-anchor="middle" x="623.5" y="-174.8" font-family="Times,serif" font-size="14.00">sort</text>
</g>
<!-- measured&#45;&gt;rejected -->
<g id="edge9" class="edge"><title>measured&#45;&gt;rejected</title>
<path fill="none" stroke="black" d="M572.938,-263.942C525.152,-263.132 451.268,-258.597 390,-240.5 369.542,-234.457 348.433,-224.726 329.997,-214.894"/>
<polygon fill="black" stroke="black" points="331.63,-211.798 321.177,-210.075 328.274,-217.941 331.63,-211.798"/>
<text text-anchor="middle" x="440.5" y="-263.3" font-family="Times,serif" font-size="14.00">sort</text>
</g>
<!-- waiting_routing -->
<g id="node8" class="node"><title>waiting_routing</title>
<ellipse fill="white" stroke="black" cx="781.5" cy="-263.5" rx="50.5" ry="50.5"/>
<text text-anchor="middle" x="781.5" y="-259.8" font-family="Times,serif" font-size="14.00">waiting_routing</text>
</g>
<!-- measured&#45;&gt;waiting_routing -->
<g id="edge8" class="edge"><title>measured&#45;&gt;waiting_routing</title>
<path fill="none" stroke="black" d="M674.288,-263.5C688.996,-263.5 705.249,-263.5 720.527,-263.5"/>
<polygon fill="black" stroke="black" points="720.917,-267 730.917,-263.5 720.917,-260 720.917,-267"/>
<text text-anchor="middle" x="702.5" y="-267.3" font-family="Times,serif" font-size="14.00">sort</text>
</g>
<!-- routed -->
<g id="node9" class="node"><title>routed</title>
<ellipse fill="white" stroke="black" cx="946.5" cy="-263.5" rx="50.5" ry="50.5"/>
<text text-anchor="middle" x="946.5" y="-259.8" font-family="Times,serif" font-size="14.00">routed</text>
</g>
<!-- waiting_routing&#45;&gt;routed -->
<g id="edge12" class="edge"><title>waiting_routing&#45;&gt;routed</title>
<path fill="none" stroke="black" d="M832.291,-263.5C849.118,-263.5 868.081,-263.5 885.607,-263.5"/>
<polygon fill="black" stroke="black" points="885.733,-267 895.733,-263.5 885.733,-260 885.733,-267"/>
<text text-anchor="middle" x="864" y="-267.3" font-family="Times,serif" font-size="14.00">route</text>
</g>
<!-- routed&#45;&gt;dispatched -->
<g id="edge13" class="edge"><title>routed&#45;&gt;dispatched</title>
<path fill="none" stroke="black" d="M997.077,-263.5C1019.08,-263.5 1045.25,-263.5 1068.69,-263.5"/>
<polygon fill="black" stroke="black" points="1068.89,-267 1078.89,-263.5 1068.89,-260 1068.89,-267"/>
<text text-anchor="middle" x="1038" y="-267.3" font-family="Times,serif" font-size="14.00">dispatch</text>
</g>
</g>
</svg>
