<?xml version="1.0" encoding="UTF-8" standalone="no"?>
<!DOCTYPE svg PUBLIC "-//W3C//DTD SVG 1.1//EN"
 "http://www.w3.org/Graphics/SVG/1.1/DTD/svg11.dtd">
<!-- Generated by graphviz version 2.38.0 (20140413.2041)
 -->
<!-- Title: semaphore Pages: 1 -->
<svg width="441pt" height="164pt"
 viewBox="0.00 0.00 441.00 164.00" xmlns="http://www.w3.org/2000/svg" xmlns:xlink="http://www.w3.org/1999/xlink">
<g id="graph0" class="graph" transform="scale(1 1) rotate(0) translate(4 160)">
<title>semaphore</title>
<!-- red -->
<g id="node1" class="node"><title>red</title>
<ellipse fill="white" stroke="red" cx="50.5" cy="-50.5" rx="50.5" ry="50.5"/>
<text text-anchor="middle" x="50.5" y="-46.8" font-family="Times,serif" font-size="14.00" fill="red">red</text>
</g>
<!-- green -->
<g id="node2" class="node"><title>green</title>
<ellipse fill="white" stroke="green" cx="216.5" cy="-105.5" rx="50.5" ry="50.5"/>
<text text-anchor="middle" x="216.5" y="-101.8" font-family="Times,serif" font-size="14.00" fill="green">green</text>
</g>
<!-- red&#45;&gt;green -->
<g id="edge3" class="edge"><title>red&#45;&gt;green</title>
<path fill="none" stroke="black" d="M98.4958,-66.2608C117.367,-72.5895 139.283,-79.9395 159.011,-86.5556"/>
<polygon fill="black" stroke="black" points="157.903,-89.8756 168.497,-89.7369 160.129,-83.2389 157.903,-89.8756"/>
<text text-anchor="middle" x="133.5" y="-84.3" font-family="Times,serif" font-size="14.00">cycle</text>
</g>
<!-- yellow -->
<g id="node3" class="node"><title>yellow</title>
<ellipse fill="white" stroke="yellow" cx="382.5" cy="-50.5" rx="50.5" ry="50.5"/>
<text text-anchor="middle" x="382.5" y="-46.8" font-family="Times,serif" font-size="14.00" fill="yellow">yellow</text>
</g>
<!-- green&#45;&gt;yellow -->
<g id="edge1" class="edge"><title>green&#45;&gt;yellow</title>
<path fill="none" stroke="black" d="M264.496,-89.7392C283.367,-83.4105 305.283,-76.0605 325.011,-69.4444"/>
<polygon fill="black" stroke="black" points="326.129,-72.7611 334.497,-66.2631 323.903,-66.1244 326.129,-72.7611"/>
<text text-anchor="middle" x="299.5" y="-84.3" font-family="Times,serif" font-size="14.00">cycle</text>
</g>
<!-- yellow&#45;&gt;red -->
<g id="edge2" class="edge"><title>yellow&#45;&gt;red</title>
<path fill="none" stroke="black" d="M332.993,-40.1156C312.704,-36.2714 288.813,-32.3907 267,-30.5 222.279,-26.6236 210.721,-26.6236 166,-30.5 147.681,-32.0879 127.896,-35.0794 110.009,-38.2741"/>
<polygon fill="black" stroke="black" points="109.208,-34.8627 100.007,-40.1156 110.476,-41.747 109.208,-34.8627"/>
<text text-anchor="middle" x="216.5" y="-34.3" font-family="Times,serif" font-size="14.00">cycle</text>
</g>
</g>
</svg>
