<?xml version="1.0" encoding="UTF-8" standalone="no"?>
<!DOCTYPE svg PUBLIC "-//W3C//DTD SVG 1.1//EN"
 "http://www.w3.org/Graphics/SVG/1.1/DTD/svg11.dtd">
<!-- Generated by graphviz version 2.38.0 (20140413.2041)
 -->
<!-- Title: semaphore Pages: 1 -->
<svg width="453pt" height="164pt"
 viewBox="0.00 0.00 453.00 164.00" xmlns="http://www.w3.org/2000/svg" xmlns:xlink="http://www.w3.org/1999/xlink">
<g id="graph0" class="graph" transform="scale(1 1) rotate(0) translate(4 160)">
<title>semaphore</title>
<!-- red -->
<g id="node1" class="node"><title>red</title>
<ellipse fill="white" stroke="lightgray" cx="50.5" cy="-50.5" rx="50.5" ry="50.5"/>
<text text-anchor="middle" x="50.5" y="-46.8" font-family="Times,serif" font-size="14.00" fill="lightgray">red</text>
</g>
<!-- green -->
<g id="node2" class="node"><title>green</title>
<ellipse fill="white" stroke="lightgray" cx="201.5" cy="-105.5" rx="50.5" ry="50.5"/>
<text text-anchor="middle" x="201.5" y="-101.8" font-family="Times,serif" font-size="14.00" fill="lightgray">green</text>
</g>
<!-- red&#45;&gt;green -->
<g id="edge3" class="edge"><title>red&#45;&gt;green</title>
<path fill="none" stroke="black" d="M98.2357,-67.7514C112.798,-73.1267 129.011,-79.1116 144.158,-84.7028"/>
<polygon fill="black" stroke="black" points="143.337,-88.1303 153.93,-88.3098 145.761,-81.5634 143.337,-88.1303"/>
<text text-anchor="middle" x="126" y="-83.3" font-family="Times,serif" font-size="14.00">go</text>
</g>
<!-- yellow -->
<g id="node3" class="node"><title>yellow</title>
<ellipse fill="white" stroke="lightgray" cx="394.5" cy="-50.5" rx="50.5" ry="50.5"/>
<text text-anchor="middle" x="394.5" y="-46.8" font-family="Times,serif" font-size="14.00" fill="lightgray">yellow</text>
</g>
<!-- green&#45;&gt;yellow -->
<g id="edge1" class="edge"><title>green&#45;&gt;yellow</title>
<path fill="none" stroke="black" d="M250.205,-91.7631C276.185,-84.2819 308.523,-74.9699 335.9,-67.0863"/>
<polygon fill="black" stroke="black" points="337.101,-70.383 345.742,-64.2524 335.163,-63.6563 337.101,-70.383"/>
<text text-anchor="middle" x="298" y="-88.3" font-family="Times,serif" font-size="14.00">slowdown</text>
</g>
<!-- yellow&#45;&gt;red -->
<g id="edge2" class="edge"><title>yellow&#45;&gt;red</title>
<path fill="none" stroke="black" d="M344.686,-41.2729C295.683,-33.2339 218.047,-23.8283 151,-30.5 137.587,-31.8347 123.305,-34.1577 109.872,-36.7591"/>
<polygon fill="black" stroke="black" points="108.904,-33.3837 99.7927,-38.7909 110.287,-40.2456 108.904,-33.3837"/>
<text text-anchor="middle" x="201.5" y="-34.3" font-family="Times,serif" font-size="14.00">stop</text>
</g>
</g>
</svg>
